<svg xmlns="http://www.w3.org/2000/svg" viewBox="0 0 739.73 737.69"><defs><style>.cls-1,.cls-18,.cls-29,.cls-31{fill:#fff;}.cls-2{fill:#5eccfc;}.cls-2,.cls-3{opacity:0.5;}.cls-24,.cls-3,.cls-6{fill:#35b6fa;}.cls-4{fill:#1f292d;}.cls-12,.cls-5{fill:#122d4a;}.cls-18,.cls-21,.cls-23,.cls-24,.cls-26,.cls-27,.cls-28,.cls-29,.cls-5{fill-rule:evenodd;}.cls-7{fill:#1382a8;}.cls-21,.cls-8{fill:#f66f6c;}.cls-11,.cls-15,.cls-17,.cls-19,.cls-27,.cls-28,.cls-30,.cls-9{fill:none;}.cls-9{stroke:#000;}.cls-11,.cls-15,.cls-17,.cls-19,.cls-20,.cls-27,.cls-28,.cls-30,.cls-9{stroke-miterlimit:10;}.cls-10{fill:#ffd37b;}.cls-11{stroke:#f66f6c;}.cls-13{fill:#c9e9fe;}.cls-14{fill:#78d6ff;}.cls-15,.cls-27,.cls-30{stroke:#fff;}.cls-16{fill:#ebf6fc;}.cls-17{stroke:#122d4a;}.cls-18{opacity:0.43;}.cls-19{stroke:#122d49;}.cls-20{fill:#f4f5fa;stroke:#252063;}.cls-22{fill:#0f69a5;}.cls-25,.cls-26{fill:#122d49;}.cls-28{stroke:#35b6fa;}.cls-29,.cls-30,.cls-31{opacity:0.39;}</style></defs><title>Asset 3</title><g id="Layer_2" data-name="Layer 2"><g id="Layer_4" data-name="Layer 4"><path class="cls-1" d="M514.23,509.93s-21.67,16.48-47.33,19.79-34.34,2-47.34,4.65-21.66-2.63-19-4.65,21-3.35,24-4.35-16.25-4.37-29.79-2.86c0,0,20.13-4.18,38.46,0s44-5.81,56.67-10.48S513.56,505.82,514.23,509.93Z"/><rect class="cls-2" x="302.32" y="48.9" width="287.97" height="400.26" rx="11.65" transform="translate(-13.78 26.49) rotate(-3.35)"/><rect class="cls-3" x="229.65" y="7.42" width="287.97" height="400.26" rx="11.65" transform="translate(-11.48 22.17) rotate(-3.35)"/><path class="cls-4" d="M383,601.57l39,6.88,7.19-23.34c2.05.07,4.1.15,6.18.15s4.14-.08,6.2-.15l7.19,23.33,39-6.87-1.24-24.37q5.92-1.92,11.64-4.25l14.73,19.46,34.27-19.78-9.53-22.57c3.26-2.53,6.44-5.16,9.49-7.91l20.54,13.28,25.43-30.31L576.4,507.19c2.2-3.49,4.28-7.05,6.21-10.7l23.82,5.45L620,464.76l-21.72-11.12c.87-4,1.57-8.09,2.14-12.21l24.22-3V398.83l-24.22-3c-.57-4.12-1.27-8.2-2.14-12.21L620,372.48l-13.53-37.17-23.82,5.43q-2.91-5.46-6.21-10.69L593,312.13l-25.43-30.31-20.54,13.27c-3.06-2.76-6.23-5.38-9.48-7.92l9.52-22.56-34.27-19.78L498.12,264.3q-5.73-2.35-11.65-4.27l1.22-24.35-39-6.87-7.19,23.33c-2.05-.08-4.11-.16-6.19-.16s-4.14.08-6.2.15L422,228.82l-39,6.86L384.22,260c-4,1.27-7.86,2.67-11.71,4.23l-14.66-19.36-34.26,19.78,9.48,22.47c-3.25,2.54-6.45,5.16-9.53,8l-20.45-13.22-25.44,30.31L294.23,330c-2.22,3.52-4.34,7.09-6.27,10.75l-23.68-5.42-13.54,37.18,21.67,11.11q-1.29,6-2.13,12.23l-24.18,3v39.57l24.22,3c.57,4.12,1.27,8.2,2.13,12.22l-21.69,11.11L264.28,502l23.81-5.44c1.94,3.65,4,7.22,6.21,10.7l-16.64,17.92,25.44,30.31,20.54-13.28c3.05,2.77,6.23,5.39,9.48,7.92l-9.52,22.55,34.27,19.79L372.6,573c3.81,1.55,7.69,3,11.64,4.25Zm2.24-96.17a18.15,18.15,0,1,1-24.8,6.64A18.14,18.14,0,0,1,385.25,505.4Zm125,6.64a18.15,18.15,0,1,1-24.79-6.64A18.14,18.14,0,0,1,510.25,512ZM417.2,537a18.16,18.16,0,1,1,18.16,18.15A18.16,18.16,0,0,1,417.2,537ZM362.35,418.62a73,73,0,1,1,73,73A73,73,0,0,1,362.35,418.62ZM317,436.77a18.16,18.16,0,1,1,18.15-18.15A18.15,18.15,0,0,1,317,436.77Zm24.93-93.06a18.16,18.16,0,1,1-24.79,6.65A18.16,18.16,0,0,1,341.93,343.71Zm211.65,6.66a18.16,18.16,0,1,1-24.8-6.65A18.16,18.16,0,0,1,553.58,350.37Zm.13,50.1a18.16,18.16,0,1,1-18.15,18.15A18.15,18.15,0,0,1,553.71,400.47ZM348.58,468.72a18.15,18.15,0,1,1-24.8-6.65A18.15,18.15,0,0,1,348.58,468.72Zm180.19,24.81a18.16,18.16,0,1,1,24.8-6.65A18.16,18.16,0,0,1,528.77,493.53ZM391.9,307a18.15,18.15,0,1,1-24.79-6.64A18.15,18.15,0,0,1,391.9,307Zm43.46-24.93a18.16,18.16,0,1,1-18.16,18.15A18.17,18.17,0,0,1,435.36,282.11Zm50.1,49.74a18.16,18.16,0,1,1,24.8-6.65A18.17,18.17,0,0,1,485.46,331.85Z"/><path class="cls-4" d="M452.73,417.13a23,23,0,1,0-23,23A23,23,0,0,0,452.73,417.13Z"/><path class="cls-4" d="M491,418.13a59.67,59.67,0,1,0-59.67,59.66A59.26,59.26,0,0,0,491,418.13Zm-96.72,37.06a52.4,52.4,0,1,1,37.05,15.35A52.06,52.06,0,0,1,394.24,455.19Z"/><polygon class="cls-5" points="606.43 335.31 595.94 331.69 578.79 345.62 568.45 347.93 564.79 312.1 567.61 281.82 557.12 278.2 535.56 304.07 532.12 280.26 512.84 244.83 502.35 241.21 483.7 273.6 524.13 316.12 568.45 365.73 559.55 477.8 514.23 543.93 424.05 569.93 365.19 557.78 324.66 524.26 281.11 488.01 253.79 498.33 264.28 501.95 283.84 493.93 292.04 507.55 292.61 551.82 303.1 555.44 322.37 536.97 344.45 555.13 347.38 588.8 357.87 592.42 368.79 565.6 383.85 572.26 411.49 604.83 421.98 608.45 421.12 578.26 440.79 576.6 438.25 604.82 448.74 608.44 465.88 568.26 502.2 557.78 502.36 588.79 512.85 592.41 527.36 562.93 523.12 539.28 548.12 529.26 557.13 551.81 567.62 555.43 575.45 525.93 559.55 512.26 578.79 409.6 585.12 362.48 606.43 335.31"/><path class="cls-6" d="M372.52,598l39,6.88,7.19-23.34c2.05.07,4.1.15,6.18.15s4.14-.08,6.2-.15l7.19,23.33,39-6.87L476,573.58c3.94-1.28,7.83-2.7,11.64-4.25l14.73,19.46L536.63,569l-9.53-22.57c3.26-2.53,6.44-5.16,9.49-7.91l20.54,13.28,25.43-30.31-16.65-17.93c2.2-3.49,4.28-7.05,6.21-10.7l23.82,5.45,13.54-37.18L587.76,450c.87-4,1.57-8.09,2.14-12.21l24.22-3V395.21l-24.22-3c-.57-4.12-1.27-8.2-2.14-12.21l21.71-11.12-13.53-37.17-23.82,5.43q-2.91-5.46-6.21-10.69l16.64-17.93-25.43-30.3-20.54,13.27c-3.06-2.76-6.23-5.38-9.48-7.92L536.62,261l-34.27-19.78-14.72,19.46q-5.73-2.34-11.65-4.26l1.22-24.35-39-6.87-7.19,23.33c-2.05-.08-4.11-.16-6.19-.16s-4.14.08-6.2.15l-7.18-23.32-39,6.87,1.22,24.29c-4,1.27-7.86,2.67-11.71,4.23l-14.66-19.36L313.1,261l9.48,22.47c-3.25,2.54-6.45,5.16-9.53,8L292.6,278.21l-25.44,30.31,16.58,17.84c-2.22,3.52-4.34,7.09-6.27,10.75l-23.68-5.42-13.54,37.18L261.92,380q-1.29,6-2.13,12.23l-24.18,3V434.8l24.22,3c.57,4.12,1.27,8.2,2.13,12.22l-21.69,11.11,13.53,37.18,23.81-5.44c1.94,3.65,4,7.22,6.21,10.7l-16.64,17.92,25.44,30.31,20.54-13.28c3.05,2.77,6.23,5.38,9.48,7.92L313.11,569l34.27,19.79,14.73-19.46q5.72,2.32,11.64,4.25Zm2.24-96.17a18.15,18.15,0,1,1-24.8,6.64A18.14,18.14,0,0,1,374.76,501.78Zm125,6.64A18.15,18.15,0,1,1,475,501.78,18.14,18.14,0,0,1,499.76,508.42Zm-93.05,24.94a18.16,18.16,0,1,1,18.16,18.15A18.16,18.16,0,0,1,406.71,533.36ZM351.86,415a73,73,0,1,1,73,73A73,73,0,0,1,351.86,415Zm-45.35,18.15A18.16,18.16,0,1,1,324.66,415,18.15,18.15,0,0,1,306.51,433.15Zm24.93-93.06a18.16,18.16,0,1,1-24.79,6.65A18.16,18.16,0,0,1,331.44,340.09Zm211.65,6.66a18.16,18.16,0,1,1-24.8-6.65A18.16,18.16,0,0,1,543.09,346.75Zm.13,50.1A18.16,18.16,0,1,1,525.07,415,18.15,18.15,0,0,1,543.22,396.85ZM338.09,465.1a18.15,18.15,0,1,1-24.8-6.65A18.15,18.15,0,0,1,338.09,465.1Zm180.19,24.81a18.16,18.16,0,1,1,24.8-6.65A18.16,18.16,0,0,1,518.28,489.91ZM381.41,303.41a18.15,18.15,0,1,1-24.79-6.63A18.16,18.16,0,0,1,381.41,303.41Zm43.46-24.92a18.16,18.16,0,1,1-18.16,18.15A18.17,18.17,0,0,1,424.87,278.49ZM475,328.23a18.16,18.16,0,1,1,24.8-6.65A18.17,18.17,0,0,1,475,328.23Z"/><path class="cls-6" d="M372.52,598l39,6.88,7.19-23.34c2.05.07,4.1.15,6.18.15s4.14-.08,6.2-.15l7.19,23.33,39-6.87L476,573.58c3.94-1.28,7.83-2.7,11.64-4.25l14.73,19.46L536.63,569l-9.53-22.57c3.26-2.53,6.44-5.16,9.49-7.91l20.54,13.28,25.43-30.31-16.65-17.93c2.2-3.49,4.28-7.05,6.21-10.7l23.82,5.45,13.54-37.18L587.76,450c.87-4,1.57-8.09,2.14-12.21l24.22-3V395.21l-24.22-3c-.57-4.12-1.27-8.2-2.14-12.21l21.71-11.12-13.53-37.17-23.82,5.43q-2.91-5.46-6.21-10.69l16.64-17.93-25.43-30.3-20.54,13.27c-3.06-2.76-6.23-5.38-9.48-7.92L536.62,261l-34.27-19.78-14.72,19.46q-5.73-2.34-11.65-4.26l1.22-24.35-39-6.87-7.19,23.33c-2.05-.08-4.11-.16-6.19-.16s-4.14.08-6.2.15l-7.18-23.32-39,6.87,1.22,24.29c-4,1.27-7.86,2.67-11.71,4.23l-14.66-19.36L313.1,261l9.48,22.47c-3.25,2.54-6.45,5.16-9.53,8L292.6,278.21l-25.44,30.31,16.58,17.84c-2.22,3.52-4.34,7.09-6.27,10.75l-23.68-5.42-13.54,37.18L261.92,380q-1.29,6-2.13,12.23l-24.18,3V434.8l24.22,3c.57,4.12,1.27,8.2,2.13,12.22l-21.69,11.11,13.53,37.18,23.81-5.44c1.94,3.65,4,7.22,6.21,10.7l-16.64,17.92,25.44,30.31,20.54-13.28c3.05,2.77,6.23,5.38,9.48,7.92L313.11,569l34.27,19.79,14.73-19.46q5.72,2.32,11.64,4.25Zm2.24-96.17a18.15,18.15,0,1,1-24.8,6.64A18.14,18.14,0,0,1,374.76,501.78Zm125,6.64A18.15,18.15,0,1,1,475,501.78,18.14,18.14,0,0,1,499.76,508.42Zm-93.05,24.94a18.16,18.16,0,1,1,18.16,18.15A18.16,18.16,0,0,1,406.71,533.36ZM351.86,415a73,73,0,1,1,73,73A73,73,0,0,1,351.86,415Zm-45.35,18.15A18.16,18.16,0,1,1,324.66,415,18.15,18.15,0,0,1,306.51,433.15Zm24.93-93.06a18.16,18.16,0,1,1-24.79,6.65A18.16,18.16,0,0,1,331.44,340.09Zm211.65,6.66a18.16,18.16,0,1,1-24.8-6.65A18.16,18.16,0,0,1,543.09,346.75Zm.13,50.1A18.16,18.16,0,1,1,525.07,415,18.15,18.15,0,0,1,543.22,396.85ZM338.09,465.1a18.15,18.15,0,1,1-24.8-6.65A18.15,18.15,0,0,1,338.09,465.1Zm180.19,24.81a18.16,18.16,0,1,1,24.8-6.65A18.16,18.16,0,0,1,518.28,489.91ZM381.41,303.41a18.15,18.15,0,1,1-24.79-6.63A18.16,18.16,0,0,1,381.41,303.41Zm43.46-24.92a18.16,18.16,0,1,1-18.16,18.15A18.17,18.17,0,0,1,424.87,278.49ZM475,328.23a18.16,18.16,0,1,1,24.8-6.65A18.17,18.17,0,0,1,475,328.23Z"/><path class="cls-7" d="M350,508.42a18.16,18.16,0,0,1,33.44,13.07l30.76-2.78a18,18,0,0,1,18.6-1.68l33.48-3a18.11,18.11,0,0,1,21.64-14.22,19.71,19.71,0,0,0,.77-7.46l-3.3-36.45a73,73,0,1,1-8.3-91.89l-3.3-36.54a18.15,18.15,0,0,1-5.43-24,18.47,18.47,0,0,1,2.91-3.77l-6.3-69.76-26.69-4.7-7.19,23.33c-2.05-.08-4.11-.16-6.19-.16s-4.14.08-6.2.15l-7.18-23.32-39,6.87,1.22,24.29c-4,1.27-7.86,2.67-11.71,4.23l-14.66-19.36L313.1,261l9.48,22.47c-3.25,2.54-6.45,5.16-9.53,8L292.6,278.21l-25.44,30.31,16.58,17.84c-2.22,3.52-4.34,7.09-6.27,10.75l-23.68-5.42-13.54,37.18L261.92,380q-1.29,6-2.13,12.23l-24.18,3V434.8l24.22,3c.57,4.12,1.27,8.2,2.13,12.22l-21.69,11.11,13.53,37.18,23.81-5.44c1.94,3.65,4,7.22,6.21,10.7l-16.64,17.92,8.18,9.74L349,524.6A18.13,18.13,0,0,1,350,508.42Zm74.91-229.93a18.16,18.16,0,1,1-18.16,18.15A18.17,18.17,0,0,1,424.87,278.49Zm-68.25,18.29A18.15,18.15,0,1,1,350,321.57,18.14,18.14,0,0,1,356.62,296.78ZM288.35,415a18.16,18.16,0,1,1,18.16,18.15A18.16,18.16,0,0,1,288.35,415Zm43.09,74.9a18.16,18.16,0,1,1,6.65-24.8A18.14,18.14,0,0,1,331.44,489.9Zm6.66-125a18.16,18.16,0,1,1-6.66-24.8A18.16,18.16,0,0,1,338.1,364.89Z"/><path class="cls-6" d="M447.88,415a23,23,0,1,0-23,23A23,23,0,0,0,447.88,415Z"/><path class="cls-6" d="M484.53,415a59.67,59.67,0,1,0-59.67,59.66A59.26,59.26,0,0,0,484.53,415Zm-96.72,37.05a52.4,52.4,0,1,1,37.05,15.35A52,52,0,0,1,387.81,452.05Z"/><path class="cls-7" d="M479.49,391a59.72,59.72,0,1,0,3.41,37.81ZM424.86,467.4A52.4,52.4,0,1,1,477.27,415,52,52,0,0,1,424.86,467.4Z"/><rect class="cls-8" x="162.2" y="39.9" width="271.64" height="445" rx="19.57" transform="translate(-14.62 17.6) rotate(-3.3)"/><line class="cls-9" x1="414.58" y1="89.99" x2="438.79" y2="461.87"/><rect class="cls-10" x="145.29" y="40.88" width="271.64" height="445" rx="19.57" transform="translate(-14.7 16.63) rotate(-3.3)"/><path class="cls-11" d="M145.79,294.26l-12-225.65a19.57,19.57,0,0,1,18.41-20.67l95.87-5.53"/><path class="cls-8" d="M408.24,477.52a19.57,19.57,0,0,0,18.41-20.67L419,324.38C395.89,338,424.8,424.86,404.39,448S334,436.51,289,440.14c-40.24,3.24-61,39.92-62.47,47.87Z"/><rect class="cls-12" x="162.99" y="59.2" width="233.53" height="361.37" rx="19.57" transform="translate(-13.35 16.51) rotate(-3.3)"/><path class="cls-13" d="M200.51,79.28H397.1a0,0,0,0,1,0,0v321.2a19.57,19.57,0,0,1-19.57,19.57h-177a19.57,19.57,0,0,1-19.57-19.57V98.85a19.57,19.57,0,0,1,19.57-19.57Z" transform="translate(-13.9 17.06) rotate(-3.3)"/><path class="cls-5" d="M241.19,233.78c-2.18-7.38-2.95-14-1.47-20.72l-20.55-11.12c-3.84,12-3.22,25.58.52,38.2,10.74,36.31,49.59,57.42,85.87,46.69a68.24,68.24,0,0,0,31.82-20.27l10.23,5.55-3.34-19-3.35-19-17.77,7.53-17.86,7.56,11.64,6.32a48,48,0,0,1-17.74,9.81c-24.69,7.3-50.84-7.31-58-31.5Zm-14.64-68.95,3.85,18.88,3.36,19.07,17.84-7.6,17.27-7.39-10.22-5.55a46.4,46.4,0,0,1,72.07,25.06c1.55,5.24,2.61,10.67,1.75,15.48l21.12,11.5a70.08,70.08,0,0,0-1.28-33.37c-10.9-36.85-49.26-58.16-86.13-47.25-11,3.25-20.65,9.57-28.65,17.09h0Z"/><path class="cls-14" d="M701,349.83l6.24,1.1,1.16-3.74,1,0,1,0,1.15,3.74,6.25-1.1-.2-3.91c.64-.2,1.26-.43,1.87-.68l2.36,3.12,5.49-3.17-1.52-3.62c.52-.4,1-.83,1.52-1.27l3.29,2.13,4.08-4.86L732,334.7c.35-.56.68-1.13,1-1.72l3.82.88,2.17-6-3.48-1.79c.14-.64.25-1.29.34-1.95l3.89-.49v-6.34l-3.89-.49c-.09-.66-.2-1.31-.34-1.95L739,313.1l-2.17-6L733,308c-.31-.59-.64-1.16-1-1.72l2.67-2.87-4.08-4.86-3.29,2.13c-.49-.44-1-.86-1.52-1.27l1.52-3.62-5.49-3.17-2.36,3.12c-.61-.25-1.24-.48-1.87-.68l.2-3.91-6.25-1.1-1.15,3.74-1,0-1,0-1.15-3.74L701,291.18l.19,3.89c-.63.2-1.26.43-1.88.68L697,292.64l-5.49,3.17,1.52,3.61c-.52.4-1,.82-1.53,1.27l-3.27-2.12-4.08,4.86,2.65,2.86c-.35.56-.69,1.14-1,1.72l-3.8-.86-2.17,6,3.48,1.78c-.14.64-.26,1.3-.34,2l-3.88.48v6.34l3.88.49c.09.66.2,1.31.34,2l-3.48,1.78,2.17,6,3.82-.87c.31.58.64,1.15,1,1.71l-2.67,2.87,4.08,4.86,3.29-2.12c.49.44,1,.86,1.52,1.26l-1.53,3.62,5.5,3.17,2.36-3.12c.61.25,1.23.48,1.86.68Zm.36-15.42a2.91,2.91,0,1,1-4,1.07A2.91,2.91,0,0,1,701.36,334.41Zm20,1.07a2.91,2.91,0,1,1-4-1.07A2.9,2.9,0,0,1,721.39,335.48Zm-14.91,4a2.91,2.91,0,1,1,2.91,2.91A2.91,2.91,0,0,1,706.48,339.47Zm-8.8-19a11.71,11.71,0,1,1,11.71,11.7A11.7,11.7,0,0,1,697.68,320.5Zm-7.27,2.91a2.91,2.91,0,1,1,2.91-2.91A2.91,2.91,0,0,1,690.41,323.41Zm4-14.92a2.91,2.91,0,1,1-4,1.07A2.92,2.92,0,0,1,694.41,308.49Zm33.93,1.07a2.91,2.91,0,1,1-4-1.07A2.92,2.92,0,0,1,728.34,309.56Zm0,8a2.91,2.91,0,1,1-2.91,2.91A2.91,2.91,0,0,1,728.36,317.59Zm-32.88,10.94a2.91,2.91,0,1,1-4-1.06A2.92,2.92,0,0,1,695.48,328.53Zm28.88,4a2.91,2.91,0,1,1,4-1.07A2.91,2.91,0,0,1,724.36,332.51Zm-21.94-29.9a2.91,2.91,0,1,1-4-1.06A2.91,2.91,0,0,1,702.42,302.61Zm7-4a2.91,2.91,0,1,1-2.91,2.91A2.91,2.91,0,0,1,709.39,298.62Zm8,8a2.91,2.91,0,1,1,4-1.07A2.92,2.92,0,0,1,717.42,306.59Z"/><path class="cls-14" d="M713.08,320.5a3.69,3.69,0,1,0-3.69,3.69A3.69,3.69,0,0,0,713.08,320.5Z"/><path class="cls-14" d="M719,320.5a9.56,9.56,0,1,0-9.56,9.57A9.59,9.59,0,0,0,719,320.5Zm-15.5,5.94a8.4,8.4,0,1,1,14.34-5.94,8.41,8.41,0,0,1-8.4,8.4A8.31,8.31,0,0,1,703.45,326.44Z"/><circle class="cls-10" cx="292.04" cy="452.84" r="22"/><circle class="cls-11" cx="292.04" cy="452.84" r="22"/><circle class="cls-9" cx="292.04" cy="452.84" r="18.27"/><path d="M310.31,452.84c0-.24,0-.48,0-.71-1.59-4.45-5.73-2.93-6.62-.26-.74,2.22-.07,4.29-2.81,8.49-1.92,2.94-4.11,3.42-7.25,3.69s-5.28,1-5.34,4.32a3.91,3.91,0,0,0,.67,2.47,18.62,18.62,0,0,0,3.1.26A18.26,18.26,0,0,0,310.31,452.84Z"/><circle cx="178.18" cy="55.7" r="6.24"/><path class="cls-15" d="M383.85,62.68,182.11,74.88a17.45,17.45,0,0,0-16.36,18.38l18.5,331"/><polygon class="cls-16" points="156.79 135.81 176.25 171.53 178.18 204.91 158.78 170.36 156.79 135.81"/><polygon class="cls-16" points="159.34 186.87 178.8 222.59 180.73 255.97 161.34 221.42 159.34 186.87"/><line class="cls-17" x1="169.42" y1="158.67" x2="170.67" y2="193.09"/><path class="cls-18" d="M389.45,113.93c-4.34,41-12.66,56.43-41.92,65C317.21,187.8,190.28,67.47,190.28,67.47l-3.35-3.21-14.61.84A19.58,19.58,0,0,0,153.9,85.77l1.75,30.28c16.51,15.51,120.23,112,169,133.62,53.1,23.55,70.62-34.6,70.62-34.61Z"/><path class="cls-18" d="M161,215.06S280.12,345.49,343.82,324.19C395.28,307,397.64,256,397.64,256l9.07,124C281.11,415,163.57,290.07,163.57,290.07Z"/><line class="cls-17" x1="172.32" y1="210.68" x2="174.2" y2="244.33"/><circle class="cls-19" cx="118.79" cy="156.66" r="5.44"/><path class="cls-20" d="M269.53,223.11l-80.18,4.11a2.13,2.13,0,0,0-2,1.61L170,299.6l63.41,9.33,38.12-82.81A2.12,2.12,0,0,0,269.53,223.11Z"/><path class="cls-12" d="M253.66,222.58l-3.37,6.33a1.22,1.22,0,0,1-1,.61l-35.09,1.09a.33.33,0,0,1-.29-.51l4.49-7.13a1,1,0,0,1,.78-.45l34.3-.84C253.71,221.67,253.79,222.35,253.66,222.58Z"/><polygon class="cls-21" points="103.12 170.6 110.45 242.6 52.45 255.93 81.45 164.81 103.12 170.6"/><path class="cls-6" d="M211.38,345.33,57,383.43a21.71,21.71,0,0,1-25.9-13.74L1.32,286.14A22.68,22.68,0,0,1,16.9,256.6l155.15-40.87a20.18,20.18,0,0,1,24.54,14l27,94.25A17.2,17.2,0,0,1,211.38,345.33Z"/><path class="cls-22" d="M57,383.43l154.34-38.1a17.2,17.2,0,0,0,12.22-21.39l-1.87-6.54-8.28-14L26.2,355.85l4.94,13.84A21.71,21.71,0,0,0,57,383.43Z"/><polygon class="cls-22" points="112.14 362.6 54.12 719.26 40.62 719.26 83.45 362.6 112.14 362.6"/><polygon class="cls-22" points="114.53 362.6 252.54 718.18 266.04 718.18 140.94 355.82 114.53 362.6"/><polygon class="cls-23" points="136.51 363.92 153.37 407.34 158.16 414.99 164.07 427.9 159.34 428.7 215.62 587.77 218.45 587.77 219.63 593.26 221.79 593.93 259.79 716.76 266.04 718.18 143.24 362.48 136.51 363.92"/><polygon class="cls-12" points="28.61 362.6 219.63 310.07 216.63 299.6 24.54 351.21 28.61 362.6"/><polygon class="cls-5" points="203.91 347.17 162.65 357.36 142.68 309.93 153.29 305.57 151.29 296.64 203.91 347.17"/><polygon points="46.66 345.26 49.59 356.83 43.9 358.4 46.66 345.26"/><polygon class="cls-22" points="57.44 342.37 61.14 356.35 49.99 358.4 46.66 345.26 57.44 342.37"/><polygon points="128.21 322.98 131.13 334.54 125.44 336.11 128.21 322.98"/><polygon class="cls-22" points="142.68 331.37 138.98 320.08 128.21 322.98 131.13 337.66 142.68 331.37"/><path class="cls-21" d="M151.29,296.64l43.63,92.45c10,21.1,40.41,19.81,48.56-2.06l33.65-90.39a58.19,58.19,0,0,0-1.34-39c-8.34-20.34-8.41-22.38-8.41-22.38l-33.93,73.71-29.39-79.49a23.33,23.33,0,0,0-27.61-14.53L144,223.13Z"/><path class="cls-12" d="M267.38,235.22s-.76,32.38-3.76,33.21-6-12.5-6-12.5l9.77-20.71"/><polyline class="cls-12" points="167.13 330.21 231.41 303.43 225.45 287.6 169.42 322.98 163.79 328.87"/><polygon class="cls-5" points="233.45 308.93 240.54 325.72 240.06 293.05 233.45 308.93"/><polygon class="cls-5" points="141.29 274.35 145.79 294.26 124.22 294.34 154.7 303.87 141.29 274.35"/><path class="cls-6" d="M53.25,227.61h62.2a5,5,0,0,1,5,5v7.9a0,0,0,0,1,0,0H48.27a0,0,0,0,1,0,0v-7.9a5,5,0,0,1,5-5Z" transform="matrix(0.97, -0.25, 0.25, 0.97, -56.03, 28.65)"/><path class="cls-21" d="M258.79,263.93s-1.17-18.17-7.5-16.35c-7.12,2-4.5,33.35-4.17,34.35S258.79,263.93,258.79,263.93Z"/><path class="cls-24" d="M228.06,294.34l-24-64.9a23.33,23.33,0,0,0-27.61-14.53L133,226l18.26,70.63,14.64,31Z"/><path class="cls-12" d="M186,226.15s11,4.3,17.87,20.52c0,0,5.77,6.06,5.66-2.34l-5.51-14.89a23.33,23.33,0,0,0-27.61-14.53l-9.89,2.53a11.26,11.26,0,0,0,.92.85s22.58-1.09,29.11,11.4l0,.09,0-.09S191,224.86,186,226.15Zm12.13,6.56-.37-.7C197.93,232.26,198.06,232.49,198.17,232.71Zm1.29,2.46Zm-.1-.19-.25-.48Zm-.39-.73-.25-.49C198.82,233.94,198.9,234.11,199,234.25Zm-.36-.7c0-.08-.09-.16-.13-.25Zm-1.58-3-.32-.6C196.82,230.13,196.92,230.33,197,230.52Z"/><polygon class="cls-24" points="220.9 269.26 231.45 294.34 160.97 333.93 148.83 308.79 220.9 269.26"/><line class="cls-17" x1="224.37" y1="281.42" x2="155.34" y2="316.42"/><path class="cls-21" d="M87.79,177.93h21.5a9.5,9.5,0,0,0,9.5-9.5V146.26h-25Z"/><path class="cls-25" d="M107.82,157.08c1.12.22,1.72-1.4.67-1.86a3.26,3.26,0,0,0-1.87-.12c-2.4.38-3.25,3.83-2.13,5.58s3.13.63,2.84-.25-.86-1.35-.92-2.69C106.38,157,107.06,156.93,107.82,157.08Z"/><path class="cls-26" d="M113.29,154.16a2.91,2.91,0,0,1,2.61-2.91c5.61-.57,18.95-2.94,26.78-12.82,10.11-12.75,5.61-21.25,1.61-24.5s-12.25-3.75-19.75,3.75c-4.84,4.84-9.29,10.09-11.85,13.21a5,5,0,0,1-5.46,1.57c-3.82-1.31-10.32-3.1-15.44-2.28-7.75,1.25-11.5,6.92-11.5,16.08v22.42c3,4.41,18.5,2.5,23.33-5.08,1.75-2.75-.79-3.31-.33-6.17,1-6.25,7.08-3.75,7.16-1.5.06,1.52.3,2.85.28,4.62,0,.78.49,1.79,1.28,1.79h0a1.89,1.89,0,0,0,1.53-1.78Z"/><line class="cls-19" x1="124.47" y1="156.66" x2="111.17" y2="155.97"/><polygon class="cls-5" points="252.99 218.29 253.79 222.34 249.22 229.52 213.82 230.61 213.48 227.53 247.94 225.96 252.99 218.29"/><path class="cls-1" d="M253,218.29l-3.9,7.05a1.2,1.2,0,0,1-1,.62l-34.28,1.61a.33.33,0,0,1-.29-.51l4.28-7.19a.92.92,0,0,1,.76-.46l34.13-1.62A.34.34,0,0,1,253,218.29Z"/><path d="M124.22,358.4s-3.9,7.74-9.69,9c-9.12,2-13-2.25-13-2.25l1.93,7.61L75,533.35s6.75-5.58,5.75,0S61.14,648.93,61.14,648.93l4.65-44.1-20,115.1,8.33-.67,56.79-349.13a44.92,44.92,0,0,1,8.44-1.89C123,367.68,124.22,358.4,124.22,358.4Z"/><polygon points="120.79 366.93 190.28 557.78 116.45 367.93 120.79 366.93"/><path class="cls-12" d="M89.68,226s16.95-1.08,14.32,4.6-33.64,13.72-33.64,13.72l66.15-19.14-16,4.24-1.42-5.68a5.12,5.12,0,0,0-6.24-3.7Z"/><path class="cls-27" d="M138.45,113.93s-10.29,1.33-14,7.33"/><circle class="cls-1" cx="122.37" cy="123.93" r="1.25"/><path class="cls-27" d="M86.45,134.26s-4,3.34-4,7.09v8.25"/><path class="cls-5" d="M187.47,287.6s15.62,3.66,13.8,12.66.15,12.24.15,12.24l30-18.16L220.9,269.26Z"/><path class="cls-5" d="M219.91,272.31l-15.85-42.87a23.26,23.26,0,0,0-9.45-11.64c0,.19,10.8,31.54,16.15,45.09,3.69,9.37-1.3,12.65-1.3,12.65Z"/><path class="cls-28" d="M195.94,221.68a29.29,29.29,0,0,1,9.23,15.08c2.45,9.84,10.18,26.62,10.18,26.62"/><path class="cls-6" d="M245.29,707.18l7.49,30,47,.47a3.78,3.78,0,0,0,3.57-5.11h0a3.77,3.77,0,0,0-2-2.12l-25.91-8-9.67-10.74-7.84-.34Z"/><polyline class="cls-19" points="265 716.93 260.38 704.68 274.75 703.59 270.75 718.18"/><path class="cls-15" d="M279.54,723s-2.5-1.42-6.69,1.59-3.33,5.93-.51,7.34S279.72,726.27,279.54,723Z"/><line class="cls-15" x1="287.43" y1="724.76" x2="284.52" y2="729.14"/><line class="cls-15" x1="292.66" y1="727.21" x2="290.71" y2="731"/><path class="cls-12" d="M194.93,269.86s-10.87-18.13-6.31-25.4,12.65,10.07,15.29,21.56C205.78,274.19,199,277.92,194.93,269.86Z"/><path class="cls-5" d="M206.87,312.5s6.35,8.26,12.76,4.85,18.53,2.73,22.24,16.3l-1.49-18.89-7.15-6.42-1.82-4.91Z"/><path class="cls-29" d="M31.15,255s-13.37,2.93-13.23,10c0,0,14.53,10.15,0,19.21s-7.21,21.77-7.21,21.77-7-19.18-7.32-25.48S.25,263.28,31.15,255Z"/><line class="cls-30" x1="52.45" y1="238.67" x2="84.35" y2="229.92"/><circle class="cls-31" cx="14.33" cy="296.76" r="2.83"/><polygon class="cls-5" points="148.83 308.79 154.7 303.87 155.34 305.22 148.83 308.79"/><polygon class="cls-5" points="220.9 269.26 218.49 268.47 219.14 270.23 220.9 269.26"/><path class="cls-24" d="M220.9,269.26s-1.76,1-5,3.05c-2.09,1.34,2.12,9.45,5,9.66s-.8-3.58,1-4.79,7.38,18.25,7.38,18.25l2.16-1.09Z"/><polygon class="cls-8" points="229.42 298.15 233.23 308.34 235.6 316.42 229.42 298.15"/><path class="cls-5" d="M107.79,216.43s-14.06-45.27-11-42.86c5.89,4.67,7.1,4.36,7.1,4.36Z"/><polygon class="cls-6" points="65.29 737.18 30.89 737.18 38.29 707.93 48.09 711.17 57.29 707.93 65.29 737.18"/></g></g></svg>