<?xml version="1.0" encoding="UTF-8"?>
<svg width="100px" height="27px" viewBox="0 0 100 27" version="1.1" xmlns="http://www.w3.org/2000/svg" xmlns:xlink="http://www.w3.org/1999/xlink">
    <!-- Generator: Sketch 52.3 (67297) - http://www.bohemiancoding.com/sketch -->
    <title>Group@3x</title>
    <desc>Created with Sketch.</desc>
    <defs>
        <polygon id="path-1" points="0 0.227328 26.2265487 0.227328 26.2265487 7.03138197 0 7.03138197"></polygon>
        <polygon id="path-3" points="0.342505531 0.4191 4.22801438 0.4191 4.22801438 4.5 0.342505531 4.5"></polygon>
        <polygon id="path-5" points="0.332844501 0.4191 10.2203287 0.4191 10.2203287 4.5 0.332844501 4.5"></polygon>
        <polygon id="path-7" points="0.407432048 0.4191 10.2949162 0.4191 10.2949162 4.5 0.407432048 4.5"></polygon>
        <polygon id="path-9" points="0.618356511 0.418924648 4.86614412 0.418924648 4.86614412 4.5 0.618356511 4.5"></polygon>
        <polygon id="path-11" points="0.328890265 0.0152307692 7.58304956 0.0152307692 7.58304956 19.64754 0.328890265 19.64754"></polygon>
    </defs>
    <g id="site" stroke="none" stroke-width="1" fill="none" fill-rule="evenodd">
        <g id="Web---v3---App-Detail-Mobile---Download" transform="translate(-215.000000, -13.000000)">
            <g id="Group" transform="translate(215.000000, 13.000000)">
                <g id="Group-3" transform="translate(0.000000, 13.500000)">
                    <mask id="mask-2" fill="white">
                        <use xlink:href="#path-1"></use>
                    </mask>
                    <g id="Clip-2"></g>
                    <path d="M26.1603694,5.972928 L24.1288188,1.537728 C23.760985,0.736368 23.0114659,0.229008 22.1896114,0.227328 L0.873720662,0.227328 C0.388918815,0.229008 -0.00200076953,0.660768 -0.000461716045,1.188288 C-0.000461716045,1.332768 0.0303193536,1.475568 0.0888033859,1.604928 L1.45856098,4.511328 C2.19730666,6.067008 3.67171989,7.039728 5.27541362,7.031328 L25.544748,7.031328 C25.918738,7.034688 26.2250096,6.707088 26.2265487,6.297168 C26.2265487,6.186288 26.2050019,6.075408 26.1603694,5.972928" id="Fill-1" fill="#308FFF" mask="url(#mask-2)"></path>
                </g>
                <g id="Group-6" transform="translate(10.619469, 22.500000)">
                    <mask id="mask-4" fill="white">
                        <use xlink:href="#path-3"></use>
                    </mask>
                    <g id="Clip-5"></g>
                    <path d="M3.71639934,0.4191 L0.854120575,0.4191 C0.576189159,0.4191 0.349419248,0.6591 0.342505531,0.9591 L0.342505531,3.9591 C0.349419248,4.2606 0.576189159,4.5006 0.854120575,4.5006 L3.71639934,4.5006 C3.99433075,4.5006 4.22110066,4.2606 4.22801438,3.9591 L4.22801438,0.9591 C4.22110066,0.6591 3.99433075,0.4191 3.71639934,0.4191" id="Fill-4" fill="#308FFF" mask="url(#mask-4)"></path>
                </g>
                <path d="M99.1446815,14.6085019 L75.8761807,14.6085019 C75.6632461,14.6144886 75.4858007,14.4528485 75.4796287,14.2448118 C75.4796287,14.1954218 75.4873437,14.1460318 75.5074027,14.0996351 C75.8669227,13.1043515 76.0505401,12.0566846 76.0459111,11.0015343 L76.0459111,7.90343352 C76.0459111,7.51579675 75.7203373,7.2 75.3222422,7.2 L70.3830863,7.2 C69.9834483,7.2 69.6578744,7.51579675 69.6578744,7.90343352 L69.6578744,11.0464343 C69.6409014,13.0190415 67.9883441,14.6085019 65.9546648,14.6085019 L63.8098892,14.6085019 C63.5969546,14.6114953 63.4225952,14.4468619 63.4195091,14.2388252 C63.4195091,14.1969185 63.4256812,14.1550118 63.4395682,14.1146018 C63.7836581,13.1522449 63.9611036,12.1404979 63.9641896,11.1212677 L63.9641896,7.97826687 C63.9641896,7.5906301 63.6401587,7.27483335 63.2389777,7.27483335 L63.2235476,7.27483335 L58.2396446,7.27483335 C57.8369206,7.27483335 57.5082607,7.58763677 57.4990027,7.97826687 L57.4990027,11.0778643 C57.4912877,13.0519682 55.8325583,14.6459186 53.795793,14.6399319 L53.7649329,14.6399319 L39.4458555,14.6399319 C38.6218914,14.6399319 37.8704484,15.0904287 37.5016704,15.8058356 L35.4649051,19.7570366 C35.3028897,20.0848067 35.4463891,20.4784301 35.7843069,20.6355801 C35.8784302,20.6789835 35.9787255,20.6999368 36.0821067,20.6999368 L53.795793,20.6999368 C56.8293389,20.7104135 59.7101275,19.4172932 61.6651136,17.1678026 L63.0846773,19.92167 C63.3192139,20.3751601 63.7975451,20.6580302 64.3190805,20.6550368 L65.8620845,20.6550368 C69.0730759,20.6700035 72.1035358,19.2167398 74.0400059,16.7337691 L75.4904297,19.9067033 C75.7095363,20.3871334 76.1986685,20.6969435 76.7402629,20.6999368 L94.733233,20.6999368 C96.3472152,20.6984402 97.826956,19.8288766 98.57377,18.4414662 L99.9007535,15.8357689 C100.122946,15.4256821 99.9593876,14.9198087 99.5366045,14.7042886 C99.4162502,14.6429253 99.2820088,14.6099986 99.1446815,14.6085019" id="Fill-7" fill="#308FFF"></path>
                <g id="Group-11" transform="translate(63.716814, 22.500000)">
                    <mask id="mask-6" fill="white">
                        <use xlink:href="#path-5"></use>
                    </mask>
                    <g id="Clip-10"></g>
                    <path d="M9.64147282,0.4191 L0.911700379,0.4191 C0.59880531,0.4191 0.342231353,0.6591 0.332844501,0.9591 L0.332844501,3.9591 C0.342231353,4.2606 0.59880531,4.5006 0.911700379,4.5006 L9.64147282,4.5006 C9.95436789,4.5006 10.2109418,4.2606 10.2203287,3.9591 L10.2203287,0.9591 C10.2109418,0.6591 9.95436789,0.4191 9.64147282,0.4191" id="Fill-9" fill="#308FFF" mask="url(#mask-6)"></path>
                </g>
                <g id="Group-14" transform="translate(15.929204, 22.500000)">
                    <mask id="mask-8" fill="white">
                        <use xlink:href="#path-7"></use>
                    </mask>
                    <g id="Clip-13"></g>
                    <path d="M9.71606037,0.4191 L0.986287927,0.4191 C0.673392857,0.4191 0.4168189,0.6591 0.407432048,0.9591 L0.407432048,3.9591 C0.4168189,4.2606 0.673392857,4.5006 0.986287927,4.5006 L9.71606037,4.5006 C10.0305199,4.5006 10.2870939,4.2606 10.2949162,3.9591 L10.2949162,0.9591 C10.2870939,0.6591 10.0305199,0.4191 9.71606037,0.4191" id="Fill-12" fill="#308FFF" mask="url(#mask-8)"></path>
                </g>
                <g id="Group-17" transform="translate(46.902655, 22.500000)">
                    <mask id="mask-10" fill="white">
                        <use xlink:href="#path-9"></use>
                    </mask>
                    <g id="Clip-16"></g>
                    <path d="M4.30482933,0.4191 L1.1796713,0.4191 C0.877774968,0.4116 0.627458913,0.6456 0.618356511,0.9456 L0.618356511,0.9591 L0.618356511,3.9591 C0.618356511,4.2591 0.862604298,4.5006 1.16450063,4.5006 L1.1796713,4.5006 L4.30482933,4.5006 C4.60672566,4.5081 4.85855879,4.2726 4.86614412,3.9756 L4.86614412,3.9591 L4.86614412,0.9591 C4.86614412,0.6621 4.62189633,0.4191 4.32,0.4191 L4.30482933,0.4191 Z" id="Fill-15" fill="#308FFF" mask="url(#mask-10)"></path>
                </g>
                <g id="Group-20" transform="translate(27.433628, 0.000000)">
                    <mask id="mask-12" fill="white">
                        <use xlink:href="#path-11"></use>
                    </mask>
                    <g id="Clip-19"></g>
                    <path d="M6.96977522,0.0150784615 L0.959686726,0.0150784615 C0.61800531,0.0150784615 0.337651327,0.251155385 0.328890265,0.548155385 L0.328890265,19.05354 C0.337651327,19.3840477 0.649545133,19.64754 1.02977522,19.64754 L6.89968673,19.64754 C7.27641239,19.64754 7.58304956,19.3825246 7.58304956,19.05354 L7.58304956,0.548155385 C7.58304956,0.254201538 7.30795221,0.0150784615 6.96977522,0.0150784615" id="Fill-18" fill="#308FFF" mask="url(#mask-12)"></path>
                </g>
            </g>
        </g>
    </g>
</svg>